<svg id="svg2" xmlns="http://www.w3.org/2000/svg" viewBox="0 0 377.21 451.57"><defs><style>.cls-1{fill:#fff;}</style></defs><path id="path204" class="cls-1" d="M160,437.07c-18.8-3.8-37.6-8.3-51-20.8,13.6-22.5,1.6-15.1,26.7-28.1,30.6-32.9,68-55.7,110.5-62.1-12.1-11.7-19.2-34.3-22.5-47.4-7.5-9.6-15.9-14.3-14.6-24.3,12.7,28.7,49.8,22,64.2.7,1.3-2.5,1.3-3.3-.6-4.6,10.4-20.1-5.6-51.4-28.5-41.2-3.8,1.9-2.1-13.9-1.7-21-8.1-1.2-13.6-4.4-21.4-3.8-5.1.8-9.7,9.5-13.6,8.9.6-24.2-26.6-16-17.3.1,2.5,2.2,6,6.7,9.1,3.9,2.4-2.3,3.2.3,1.3,4.6-4.1,26.4,32.7,31.1,45,14.1,1.6,1.2.9,1.9.1,3.7-17.5,24.5-52.4,10.2-49.6-16.4-16-1.4-15.8-16.2-8.2-26.1-8.6-1.2-4.2-11.5-.8-13.8,3-1.6,5.3-4.2,1.3-4.9l2.6-1.3c1-5-2.9-9.3-7.3-8.6-5.3,2.1-6.6,6.8-10.5,11,1,2.4,7.4,13.5,4.8,13.6-17.5,8.1-13,30.5,6.1,26.7-4,7.2-11.7,6.9-17.3,2.3-1.4-1.7-4-.1-5.8.3,3,8,9.4,12.5,17.5,14.1,3.3-.9,11.7,5.5,6.2,7-23.2-.5-24.6-25.4-32-20.5-1.6,3.6,5.1,12.9,7.4,16,6.3,8.9,8.8,10.8,20.4,15.8,10.5,2.9,30,.1,33.9,7.2,1.8,2.4,2.2,3.1-.2,3.9,12.3,19.7,45.9,19.3,52.7-4.3.9-3.3,1.1-3.6,2.3-3.1,2.4,1.5-1.1,8.2-1.9,10-4.9,11.7-16.6,17.5-27.8,17.1-11.8.1-29.2-8.3-30.9-20.6.1-1.7.1-1.9-1.4-2.4-7.2-1.4-4.6,6.9-8.4,10.8-3.5,2.5-7.7,4.5-11.4,3.1-1.2-9.9,13.5-4.5,13-13.9h-7.12c-.4,1.8-2.6,4.5-2.7,1.9-.4-2.6-4.2-2.5-6-3-21.2-5-29.8-24-39.2-41.3-8.5-2-10.3-11-16.9-15.5-25.9-.1-37.4-4.3-47.9-28.8-8.8,1.6-8.7,11.9-14.3,15.5-2.6-7,6.1-17.3,10.9-19.8a2.7,2.7,0,0,0,1-1.7c-3.1,1.6-11.9,10.7-8.3,1.5,2.3-4.5,6.1-4.6,8.1-8.8.1-1.4.8-2,1.6-3.1,1.8.4,2.5,1.6,3.2,3.1,11.5.1,22.6,6.6,16.7,17.6a47.56,47.56,0,0,1-4.3-7.9c-.1,1.9-.4,3.5-1.8,4.7-2.9-1.2-6.9-3-8.9-1.8,3.3,8.2,7.3,15.8,15.6,18.7,5.1,2.2,13.5,5.6,18.9,3.7,1.4-.4.5-.6-.3-1.3-6.4-4.5-23.6-4.4-25.1-12.1-.4-1.7-.2-1.7,2.1-.6,4.6,2,9.8,3.2,14.1,4.4,10.8,2.3,19.6,12.6,30,14s12,13.3,20.9,14.6c.9-8.8-.6-10.8,4.2-19.4a18.43,18.43,0,0,0-5.3-9.3c-24.5,7.4-50.1-11.7-52.3-35.3-6.5,1.8-5.9,4.5-14.3,3.6-25.2-2.9-42.9,35.7-19,48.1.2-.8.7-18.9,1.2-19.7.3-1.9,1-1.6,2.6-1.6,1.2,12.8-2,31.8,5,43.1,2.3,16.5-2.8,36.3-5.5,52.6,1.3,1.8,3,2.3,5.1,3.4,5.2-1.8,10.3-4,15.2-5.6v-3.2c-9.7-10.8,13,1.5-.5,9.7h-3.8c.2,1.5.4,2.9.6,4.4-2.4,1-.8,3-.2,5.1,3,2.3,4.4,1.5,7.1.1,2.4.5,4.7,2.8,6.2.7,2.9-1.8,3.9.4,6.3,2.4-.4.8-.9,1.6-1.3,2.4h-11.7c-1.5,1.8-.8,3.1-.1,4.9,6.5.9,9.2,5.4,9.5,12,2.7,28.4,50.8,13.3,65.7,3.8,2-.4,15.4-13.6,15.5-10.6-.6,4.4-24.6,19.7-33.4,23.2-1.9,48.5-23,56.7-44.8,90.2,0,2.5,0,10-2.5,10.3-6.9-30.6,43-34.2,42.5-99.2-19.9,4.1-51.3,8.5-47.2-22.1-2.2-3.8-8.6-2.6-10.2-5.8-.9-5.1,1.8-5.8-4.2-8.2-.7,0-2.7-2.1-3.1-3.4-.9-1.7,3.9-7.9.2-7.4a4.91,4.91,0,0,0-3.4,2.2,11.37,11.37,0,0,1-10.7-5.3c.9-14.8,4.5-29.5,4.4-44.5.3-7.1.3-10.9-3-15.6-.5-5.2.1-9.7-.9-14.3-12,3.8-19.4-15.6-16.8-25.9,1.9-13.8,12.3-23.4,23.1-30.5,10.2-25.7,31.7-44.4,40.4-70.4,18.6-53.9,53.2-61.6,95.3-29.2,24.6,10.1,46.3,37.4,44.2,64.2,30.6,38.6-21.7,67.6-14.7,106.2,48.1-10.1,48.8,87.2-18.5,75.9a120,120,0,0,0,8.1,23.9c1.7,7.4,21.1,23.6,22.4,34.4.9,57.5-36.6,109.5-98.1,100Zm34.4-2.9c8.9-1,28.2-10.4,30.7-18.9-.2-1.5-4,.5-5.1.7,1.2-2.5,6.6-9,8-7.2a.89.89,0,0,0,1.1.2c5.7-7.7,9.4-16.8,14.4-24.6,1.9-3.8,2.8-5.1-.5-6.7,5.4-8.8,9.5-14.6,9.1-24.2-2.1-.2-7.8.8-6.3-2.1.8-2.6,4.9-2.3,6.9-4.2a18.62,18.62,0,0,0-.8-10.5l-3-.3c-.1-3.1,2.8-3.9.4-6.9-38.2,1.4-71.5,23.2-97.8,49.1-9.1,10.4-17.5,14.4-29.2,19.6-4.7,12.9-12.2,16.9,3.4,25.2,2.3-.3,8.1-5.8,6.3-2.3-4.5,13.6,55.9,14.5,62.4,13.1Zm-24.5-11.4c9.4-1.9-4.5,9.9-7.3,10.4A14.19,14.19,0,0,1,169.86,422.77Zm22.8.5c2.3,5.3-3.9,7.1-7.6,8.6,1.8-4.2,3.6-7.4,7.6-8.6Zm14,.7c-1.3,5.8-4.9,7-9.6,7.9.5-5.4,4.9-7.9,9.6-7.9Zm-31.3,3.2c1.2-1.7,4.2-5.8,6.2-5.1,2.6,4.8-3.8,6.8-6.6,9.1C174.16,430.17,174.76,428.37,175.36,427.17Zm-17.8-6.9a17.8,17.8,0,0,1,5.6-1.4c-.3,5.8-7.4,9.5-11,11.6C153.56,427.27,154.66,422.47,157.56,420.27Zm-10.1.3a17.35,17.35,0,0,1,8.1-5.3c.5,6.1-5.1,8.3-9.4,11a26.47,26.47,0,0,1,1.3-5.7Zm60.8,3.2c1.4-3.7,6.1-8.3,9.2-6.8C216.06,421.17,212.46,425.77,208.26,423.77Zm-69.5-3.4c.7-1.8,6.4-7.4,7.1-7,.1,5-3.6,7.8-7.4,10.5A4.77,4.77,0,0,1,138.76,420.37Zm61.3-1.6c2.4-2.4,9.1-8.8,7.8-1.1-3.1,2.2-6.2,4.3-9.4,6.2l1.6-5.1Zm-3.5-7.2c1.8,5-6,9.2-9.2,10.2A13.65,13.65,0,0,1,196.56,411.57Zm-13.5.8c3.7-1.1,3.7-1.1,3.3.9-2.9,5.7-6,6.1-10.6,7.9.9-4.2,3.9-7.8,7.3-8.8Zm-8-2.4c2.2-.7,2.4-.6,2,1.5-1.7,3.8-6.1,5.8-9,8.3C168,415.57,171.76,411.17,175.06,410Zm-51.2-3.1c6.6.5-2.7,9.7-4.8,11.4C119.86,414.87,120.76,408.47,123.86,406.87Zm2.7,10.7c-.6-.6.3-4,1.5-6.1,1.4-1.3,10.1-11.2,6.7-3.2-2,4-4.3,8-8.2,9.3Zm13.8-8.5c2.7-1.7,3.3-1.7,3.3.1-.2,3.4-4.9,5.6-7.6,7.2-.1-3,2.2-5.9,4.3-7.3Zm32.6-7c.7,1.3.5,2.4.5,3.8-3.2,3.3-7.7,5.6-11,7.4,1.8-3,7.5-12.1,10.5-11.2Zm-15.9,4.3c1.4-1.7,5.4-4.6,6.2-4.6,2.1,5.6-4.4,8.6-8.4,10.3a11.16,11.16,0,0,1,2.2-5.7Zm61.1-2.3a16.58,16.58,0,0,1,6.4-2.4c-.3,6.4-6.2,10.2-11.9,10.5C212.86,409.07,215.76,405.77,218.16,404.07Zm-10.4-1.2a13.56,13.56,0,0,1,3.5-1.4c-1.1,4-5.3,9.5-10.3,9.5A12.66,12.66,0,0,1,207.76,402.87Zm-7.5-3.2c2.5,5.3-5.4,8.4-9.4,10.3C191.56,406.57,196.86,400.07,200.26,399.67Zm-17.5,6.1c2.6-4.7,5.7-8,10.2-9.4,1.5,6-7.6,9.8-11.3,11.9Zm-47.9-9.3c4,1.9-3.7,11.1-8,10.2C128.36,403.47,131.36,397,134.86,396.47Zm14,9.8c-2.4-3.2,7.6-9,8.7-8.6C157.76,401.17,152.56,408.17,148.86,406.27Zm-9.8-2.1c-1.6-1.6,1.6-6.4,4.8-7.3,3-2,4.4.6,2.7,3.1-1.32,2-6.7,5-7.5,4.25Zm88.3-4.4c2.2-3.1,4.5-6,8-6,.8,6-3.7,7.7-8.9,8.1a5.94,5.94,0,0,1,.9-2.1Zm-42.2-7.1a13.62,13.62,0,0,1,2.7-1.6c.9,4.2-4.6,10.2-8.9,10.2C179.66,397.67,182.56,394.47,185.16,392.67Zm29.4,8.2a7.16,7.16,0,0,1-.4-2.9c2.4-2.5,12.3-12.3,10.9-3.2C223.06,397.07,216.86,402.67,214.56,400.87Zm-46-1.1c.7-2.6,8-10.3,11.3-9.6.6,5.2-7.2,9.4-11.3,9.6Zm39-6.8c1-1.2,6.9-4.6,8-4.6.6,6.8-6.9,7.6-10.6,10.4a10.73,10.73,0,0,1,2.6-5.8Zm-35.5-6.8c1.6,5.3-6.7,8.1-10.5,9.7C162.26,390.37,167.36,388.17,172.06,386.17Zm-31.7,8.5c0-1.7,7.7-8.5,9.7-8.5C153.86,389.67,140.86,397.77,140.36,394.67Zm66.8-9.3c5.8-2.7,6.9-12.4,14.6-11.4-.1,6.5-8.1,8.9-13,11.6a15,15,0,0,1-13.6,9.7c2.3-4.7,7.4-8.8,12-9.9Zm-44.4-.8c1.9,5.5-9.4,8.7-11.8,10.2C149.86,389.47,158.76,386.17,162.76,384.57ZM230,387c2-3.9,5.8-4.3,9.2-5.2.4,2.8-.5,3.4-2.6,5.3-2.2,2.7-4.2,2.3-7.3,2.3a9.58,9.58,0,0,0,.7-2.4Zm-29.4-7.3c3.2,0-1.9,6.3-3,7.1A15.09,15.09,0,0,1,192,389c.8-3.5,5.2-9,8.6-9.3Zm-8-2.2c3.4,3.5-5.8,9.5-8.8,10.3C183.46,382.67,188.76,379.67,192.56,377.47Zm32,1.7c1.9.4,5.2-1.2,4.6,1.2-1.4,4.5-5.9,6.8-10.6,6.9.5-3.6,3.5-5.7,6-8Zm-63-4.8c2.5-1.4,2.6-1.4,2.6.3-1.6,5.1-5.3,7.4-9.2,9.4,1.7-3.7,3.8-8.1,6.6-9.7Zm23.6-.9c2.4,4.5-4.5,8.2-7.9,10.6,0-3.6,5-11.3,7.9-10.6Zm-12-.2a16.62,16.62,0,0,1,3.6-2.7c2.1,5-4.6,9.8-8.9,10.8-.8-2.7,3.7-6.8,5.3-8.1Zm64.6-.6c3.7,0,3.9,1.5.9,4.7-2.1,3-4.8,2.3-8.1,2.3,1.3-3.3,4.1-6.9,7.2-7Zm-24.6-3.5c3.2-1.6,3.2-1.6,3.2,0,0,2.7-6.4,7.4-10.3,8.4C207.66,374.17,210.26,370.67,213.16,369.17Zm-14.6,1.8c1.1-1.4,7.5-5.3,8.6-5.3.7.9.5,1.8.5,3-3.1,3.1-6.6,5-10.3,7.2a7.51,7.51,0,0,1,1.2-4.9Zm25.1,2.3c2-4.7,7.5-8.7,12.4-7.1.3,4.1-1.7,4.6-5.4,6C229.06,372.37,224.66,374.57,223.66,373.27Zm-51-9.6c2.4-2.2,4.9-3.9,8-3.9-2,5.1-7.6,9.1-11.6,11.5A21.46,21.46,0,0,1,172.66,363.67Zm21.4,1.3c1.7-1.4,3.4-2.5,5.5-2.5,1,5.4-3.8,4.8-6.8,7.5A9.42,9.42,0,0,1,194.06,365Zm48.18,4.25c-4.4-2.6,3.1-6.9,5.8-5.2C247.46,366.77,245.36,370.77,242.24,369.22Zm-61.4-1.5c.3-3.4,7.2-7.6,7.2-4-1,3.9-3.4,3.5-6.3,5.2-.58,1.15-1.18.45-.88-1.25Zm38.2-9.1c5.6-4.6,5.9,4.4-7,7.7,1.32-3.25,4.32-5.95,7-7.75Zm4.6,6.1c2.1-3.2,4.6-5.4,8.1-5.9.8,5.1-4.9,6.7-8.9,7.3Zm-12.2-9.4,2.2,1a16.86,16.86,0,0,1-11.5,7.2c1-4.75,5.42-6.65,9.32-8.25Zm30.3,2.1,3.9-.3c.1,2.4-1.1,4.1-2.3,6h-4.9C239.64,361.12,240.54,359.42,241.74,357.42Zm-48.3,1.4c3.2-4.2,6.7-5.9,10.9-7.2-.1,4.9-6.1,7.4-8.7,8.4-3.3,1.2-3.4,1.1-2.2-1.2Zm-6-3.2c10.5-14.9,14-3.3-.8,2Zm53.9-5.1c0,5.2-4.6,7.2-9.1,6.6C234,352.82,237.14,351.22,241.34,350.52ZM224,349l7.2.3c.9,6.8-5.7,5.7-10.6,5.7,0-2.5,2.2-4.6,3.4-6Zm-13.2.1c2.2-.7,9.3-4.4,10.6-2.2-2.5,5-7.8,6.4-12.7,7.2,0-2,1.3-3.8,2.1-5Zm22.9,0c1.9-6.4,8.7-3.1,10.9-8.4,0-1.7,5.7-2.3,6.3-.6-.3,4.4-3.7,4.6-6.9,4.6-.3,2.2-2.1,3.4-3.6,4.9A30.14,30.14,0,0,1,233.74,349.12Zm-31.5-.4c.69-1.57,1.46-3.11,2.3-4.6,18-8.9,8.42,4.65-2.3,4.55Zm26.7-7.2a31.3,31.3,0,0,1,5.3.3c-.7,6.3-5.9,5.8-11,5.7A14.34,14.34,0,0,1,228.94,341.52Zm-6.9-3.9c2.9-.7,6.5-1.3,9-.7-2.1,4.3-8.1,5.7-11.8,6.2C218.34,341,221,338.82,222,337.62Zm14.9-4.8a63.21,63.21,0,0,1,8.7.3c-.7,1.9-1.5,3.2-2.4,5.1h-9Zm-18.4-152.4c8.1-6.4,16.8,2.4,25.2.4,3.3-6.9,7-13.7,10.2-20.7-8.9,1.8-19.7-.9-28.1,3.8-9.9,5.2,3.1-8.7,3.8-11.4a27.25,27.25,0,0,0-.7-13c-38.4-11.4-15.6,10.5-38.4,24.7-9,9.8,6.5,8,11.9,9.6,7.2,3.7,6,6.3,7.4,11.4a41,41,0,0,0,8.7-4.8Zm-49.4-17.8c-5.5,1.7-.9,8,.9,12.1l3.4-3.4c-1.38-2.95-2.78-5.95-4.28-8.75Zm-13.3,1c16-.1,25.2-26.4,18.9-17.7-11.1,14.8-31.8,15.3-44.8,4.2-8.6-6.9-13.1-15.7-11-25.6,5.4-10.2,6.3-22.8,18.2-22.1,7.5,1.1,15.8,4,14.7,11.8,2.4,6.2-10.9,13.5-11.7,8.2,0-2,.6-3,2-3.5,4.6-6.9-5.3-8.4-10-5.9-12.3,13.2-5.5,34.3,13.8,38.9,36,1.7,26.3-29.6,10.4-50-11-13.3,8.3-10.3,16,19.4,5.8,18.3,9.6,23.4,25.3,26.4-2.1-18.1-15.1-29-19.2-44.6-.6-20.2-.6-40.5-2.7-59.6,10,10.7-3.6,59.5,12,73.6,6.7,8.7,8.4,16.7,11.8,25.8a95.59,95.59,0,0,1,9.4-10.6c8.2-.8,16.7,2.2,25,1.9a32.94,32.94,0,0,1-1.5,4.1,30.62,30.62,0,0,1-1.1,16.8c9.8.3,15.3,1.6,23.7-1.9,9.3-9.6,15.4-24.7,12.2-36.8-3.3-9.4-13.1-15.7-11.7-26.2l2.4-.3c.2-18.6-17.1-32.8-28.5-42.4-7.9-7.3-18.6-10-25.1-15.9-36.3-28.8-66-4.2-76,29a275,275,0,0,1-25.2,43.2c-6.4,9.2-12.9,16.4-16.8,26.3a86.12,86.12,0,0,0,8.8.1c11.4.8,13.6-2.5,19.9-11l1.3,1.3c-10.8,24.5,17.1,46.3,39.5,43.1Zm92.3,87.6c10.1-3.6,15-9,17.1-16.5,5.4-15,2.1,18.5-16.3,21.7A5.72,5.72,0,0,1,248.14,251.22Zm6.6-13.8c7.5-6.6,1.5-18.2,4.4-18.6,3.2,1.3,3.1,6.7,2.9,9.4-.3,10.3-10.4,15.8-18.1,17.9-2.5-3.9,8.5-6.7,10.8-8.7ZM104,228.72c-1.1-.4-1.6-4-.9-5.9,1.4-2.2-1.3-4.2-2.1-6.3-3.2-.2-3.8-3.5-4.6-5.9-5.3-.2-8.2-4.5-5.3-8.6,11.3-8.6,26.1-3.2,38.5-1.7a4.1,4.1,0,0,1-.7,1.7c-7,0-21.2-.1-28.2-.1-5.7,2.1.6,4.3,3.3,4.4,8.5.8,13.5,3.6,19.9,7.8-1.5,7-12.2,7.2-17.1,11.1l6.8-.6c0,1.7-1.9,2-3.3,2.5l.6,6a10.16,10.16,0,0,1-4.2,4.5C105.94,234.52,105.84,231.12,104,228.72Zm8.7-9.3c5.6-2.5-1-3.3-3.5-2.9C109,218.92,110.74,220.12,112.74,219.42Zm-5.3-.6c-.6-1.2-2.6-2.3-2.6-1.4,1,1.25,3.62,3.8,2.62,1.35Zm6.1-6.5c-2.5-1.8-12.9-4.9-11.9-.8C105.44,211.72,110.44,213.12,113.54,212.32Zm36.8-33.6c-6.1-2.9-16.9-2.8-19.7-9.4,3.2-.6,18.9,5.6,22.3,7.6,1.8.5,8.3,7.8,5.1,8.7-3.2-1.8-5-4.1-7.7-6.9Z"/></svg>